<svg width="56" height="56" viewBox="0 0 56 56" fill="none" xmlns="http://www.w3.org/2000/svg">
<path d="M44.7953 39.1071C44.7953 39.4487 44.4939 39.75 44.1524 39.75H14.581C14.2395 39.75 13.9381 39.4487 13.9381 39.1071V23.6786C14.36 24.1607 14.8221 24.6027 15.3243 25.0045C18.1971 27.2143 21.0899 29.4643 23.8823 31.7946C25.389 33.0603 27.2573 34.6071 29.3466 34.6071H29.3667H29.3868C31.4761 34.6071 33.3444 33.0603 34.8511 31.7946C37.6435 29.4643 40.5363 27.2143 43.4091 25.0045C43.9113 24.6027 44.3734 24.1607 44.7953 23.6786V39.1071ZM44.7953 17.9933C44.7953 19.7009 43.148 21.9308 41.8421 22.9554C39.1502 25.0647 36.4582 27.1942 33.7863 29.3237C32.7216 30.1875 30.793 32.0357 29.3868 32.0357H29.3667H29.3466C27.9404 32.0357 26.0118 30.1875 24.9471 29.3237C22.2752 27.1942 19.5832 25.0647 16.8913 22.9554C15.0832 21.529 13.9381 19.5402 13.9381 17.25C13.9381 16.9085 14.2395 16.6071 14.581 16.6071H44.1524C44.9158 16.6071 44.7953 17.4911 44.7953 17.9933ZM47.3667 17.25C47.3667 15.4821 45.9203 14.0357 44.1524 14.0357H14.581C12.8131 14.0357 11.3667 15.4821 11.3667 17.25V39.1071C11.3667 40.875 12.8131 42.3214 14.581 42.3214H44.1524C45.9203 42.3214 47.3667 40.875 47.3667 39.1071V17.25Z" fill="white"/>
</svg>
