<svg width="55" height="56" viewBox="0 0 55 56" fill="none" xmlns="http://www.w3.org/2000/svg">
<path d="M23.9931 29.3724V28.0867C23.9931 27.7251 24.2743 27.4438 24.6359 27.4438H38.7788C39.1404 27.4438 39.4216 27.7251 39.4216 28.0867V29.3724C39.4216 29.734 39.1404 30.0153 38.7788 30.0153H24.6359C24.2743 30.0153 23.9931 29.734 23.9931 29.3724Z" fill="white"/>
<path d="M24.6359 32.5867H38.7788C39.1404 32.5867 39.4216 32.868 39.4216 33.2296V34.5153C39.4216 34.8769 39.1404 35.1581 38.7788 35.1581H24.6359C24.2743 35.1581 23.9931 34.8769 23.9931 34.5153V33.2296C23.9931 32.868 24.2743 32.5867 24.6359 32.5867Z" fill="white"/>
<path d="M24.6359 37.7296H38.7788C39.1404 37.7296 39.4216 38.0108 39.4216 38.3724V39.6581C39.4216 40.0197 39.1404 40.301 38.7788 40.301H24.6359C24.2743 40.301 23.9931 40.0197 23.9931 39.6581V38.3724C23.9931 38.0108 24.2743 37.7296 24.6359 37.7296Z" fill="white"/>
<path fill-rule="evenodd" clip-rule="evenodd" d="M16.2788 21.3148C12.1836 21.3148 8.86377 17.995 8.86377 13.8998C8.86377 9.8046 12.1836 6.48479 16.2788 6.48479C19.7228 6.48479 22.6184 8.83276 23.4522 12.0153H36.2073C37.2721 12.0153 38.7587 12.638 39.502 13.3813L45.7698 19.6492C46.5131 20.3925 47.1359 21.8791 47.1359 22.9438V46.0867C47.1359 47.1514 46.2721 48.0153 45.2073 48.0153H18.2073C17.1426 48.0153 16.2788 47.1514 16.2788 46.0867L16.2788 21.3148ZM18.8502 20.8568C21.4727 19.8871 23.3969 17.477 23.6624 14.5867H34.2788V22.9438C34.2788 24.0086 35.1426 24.8724 36.2073 24.8724H44.5645V45.4438H18.8502V20.8568ZM37.6739 15.1894C37.5332 15.0488 37.1917 14.868 36.8502 14.7474V22.301H44.4038C44.2832 21.9595 44.1024 21.618 43.9618 21.4773L37.6739 15.1894ZM17.2788 14.8998H21.2788V12.8998H17.2788V8.89983H15.2788V12.8998H11.2788V14.8998H15.2788V18.8998H17.2788V14.8998Z" fill="white"/>
</svg>
