<svg width="21" height="20" viewBox="0 0 21 20" fill="none" xmlns="http://www.w3.org/2000/svg">
<g clip-path="url(#clip0_4122_3150)">
<g clip-path="url(#clip1_4122_3150)">
<path d="M16.912 13.4558C16.9721 13.8435 16.8452 14.0076 16.717 14.0076C16.5887 14.0076 16.403 13.8499 16.196 13.5372C15.9889 13.2245 15.9181 12.8769 16.0183 12.6985C16.056 12.6368 16.1169 12.5914 16.1883 12.5719C16.2597 12.5524 16.3361 12.5603 16.4017 12.5939C16.7423 12.7179 16.8759 13.2232 16.912 13.4558ZM15.0244 14.3061C15.4345 14.6408 15.5587 15.0388 15.3423 15.3192C15.2764 15.3976 15.1924 15.46 15.097 15.5013C15.0017 15.5426 14.8976 15.5616 14.7932 15.557C14.5644 15.5573 14.3427 15.4801 14.1667 15.3386C13.7953 15.0246 13.6858 14.5141 13.9289 14.2247C13.9826 14.1653 14.0497 14.1185 14.1249 14.0881C14.2002 14.0576 14.2816 14.0442 14.3631 14.0489C14.6079 14.0568 14.842 14.1478 15.0244 14.3061ZM14.3404 17.5367C16.1024 17.5367 18.0141 18.1208 20.1316 19.9351C20.3426 20.116 20.6245 19.8911 20.4402 19.665C18.3601 17.1258 16.4324 16.6412 14.518 16.2328C12.1722 15.7314 10.9645 14.4534 10.1189 13.0513C9.95188 12.7722 9.87574 12.8213 9.86104 13.1805C9.847 13.7131 9.88863 14.2456 9.98528 14.77C9.89043 14.77 9.79425 14.77 9.6994 14.77C8.4972 14.77 7.322 14.4252 6.32241 13.7791C5.32282 13.133 4.54373 12.2147 4.08367 11.1404C3.62361 10.066 3.50324 8.88379 3.73777 7.74324C3.97231 6.60269 4.55122 5.55503 5.40131 4.73274C6.25139 3.91045 7.33446 3.35046 8.51356 3.1236C9.69265 2.89673 10.9148 3.01316 12.0255 3.45818C13.1362 3.9032 14.0855 4.65682 14.7534 5.62373C15.4213 6.59064 15.7778 7.72742 15.7778 8.89031C15.7784 9.1187 15.7655 9.34694 15.7391 9.5739C15.0987 9.49591 14.4516 9.48421 13.8087 9.53902C13.5776 9.5584 13.611 9.66824 13.7846 9.69279C15.7885 10.043 17.1752 11.2435 17.4905 13.4338C17.4916 13.4449 17.4963 13.4554 17.504 13.4637C17.5116 13.4721 17.5218 13.4779 17.533 13.4803C17.5443 13.4828 17.556 13.4817 17.5666 13.4773C17.5772 13.4729 17.5861 13.4654 17.592 13.4558C18.6344 11.7702 19.0708 9.79832 18.8331 7.84768C18.5954 5.89703 17.697 4.07732 16.278 2.67239C14.859 1.26746 12.9992 0.356295 10.9887 0.0810301C8.9782 -0.194235 6.93005 0.181874 5.16372 1.15069C3.39738 2.11951 2.01218 3.62656 1.22418 5.43677C0.436172 7.24698 0.289675 9.25857 0.807535 11.1578C1.3254 13.057 2.47849 14.737 4.08697 15.9358C5.69545 17.1346 7.66886 17.7847 9.6994 17.7848C11.042 17.7887 12.3792 17.5354 14.3404 17.5354V17.5367Z" fill="#3E9CDC"/>
</g>
</g>
<defs>
<clipPath id="clip0_4122_3150">
<rect width="20" height="20" fill="white" transform="translate(0.5)"/>
</clipPath>
<clipPath id="clip1_4122_3150">
<rect width="20" height="20" fill="white" transform="translate(0.5)"/>
</clipPath>
</defs>
</svg>
